<svg width="6318" height="1970" xmlns="http://www.w3.org/2000/svg" clip-rule="evenodd">

 <g>
  <title>background</title>
  <rect fill="none" id="canvas_background" height="1972" width="6320" y="-1" x="-1"/>
 </g>
 <g>
  <title>Layer 1</title>
  <path id="svg_2" fill="#e30b13" fill-rule="nonzero" d="m4142.13204,186.257696l-250.3752,0l0,1400.292787c227.541849,7.829173 454.125363,19.308349 679.79221,34.354194l0,-246.704364c-142.750114,-9.520841 -285.875229,-17.591681 -429.41701,-24.275019l0,-1163.667598zm1989.793258,0.141667l-275.041887,0l-181.291812,420.212836l-162.87513,-420.212836l-270.916883,0l291.125233,750.863101l-317.791921,736.621423c87.916737,8.575007 175.583474,17.725014 263.166877,27.391689l184.833481,-428.296176l183.041813,472.133711c95.33341,12.258343 190.416819,25.05002 285.333562,38.595864l0.416667,-0.1625l-326.166928,-841.213173l326.166928,-755.933938zm-3099.63998,1387.91361l250.3877,-0.054167l0,-569.600456l339.416938,0l0,-246.704364l-339.416938,0l0,-322.616925l448.583692,0l0,-248.925199l-698.971393,0l0,1387.90111zm-934.996581,-1138.992578l262.054376,0l0,1153.663423c83.316733,-3.150003 166.8043,-5.741671 250.379367,-7.929173l0,-1145.73425l262.041876,0l0,-248.921032l-774.47562,0l0,248.921032zm-856.000685,1225.36348c230.771018,-20.97085 462.604537,-38.254197 695.492223,-51.666708l0,-246.733531c-148.795952,8.600007 -297.171071,18.783348 -445.112856,30.416691l0,-373.504465c97.070911,-0.966667 224.891847,-3.92917 338.129437,-2.520835l0,-246.725197c-90.466739,-0.220834 -235.866855,1.262501 -338.129437,2.570835l0,-337.183603l445.112856,0l0,-248.925199l-695.492223,0l0,1474.272013zm-491.150393,-570.34629l-326.104428,-903.938223l-237.958524,0l0,1597.342945c83.300067,-11.858343 166.758467,-23.212519 250.379367,-34.104194l0,-868.629862l289.962732,832.963166c91.200073,-10.575008 182.562646,-20.591683 274.104386,-30.008357l0,-1497.563698l-250.383534,0l0,903.938223zm4027.828222,545.42127c83.5834,6.395838 167.0418,13.258344 250.416867,20.675017l0,-1470.034509l-250.416867,0l0,1449.359493z"/>
 </g>
</svg>